<?xml version="1.0" standalone="no"?>
<!DOCTYPE svg PUBLIC "-//W3C//DTD SVG 20010904//EN"
 "http://www.w3.org/TR/2001/REC-SVG-20010904/DTD/svg10.dtd">
<svg version="1.0" xmlns="http://www.w3.org/2000/svg"
 width="162.000000pt" height="162.000000pt" viewBox="0 0 162.000000 162.000000"
 preserveAspectRatio="xMidYMid meet">
<metadata>
Created by potrace 1.11, written by Peter Selinger 2001-2013
</metadata>
<g transform="translate(0.000000,162.000000) scale(0.100000,-0.100000)"
fill="#000000" stroke="none">
<path d="M370 889 c0 -181 -3 -227 -16 -254 -34 -71 -143 -86 -196 -26 -15 17
-28 42 -28 56 0 14 -3 25 -7 26 -5 0 -16 2 -25 4 -14 3 -18 -4 -18 -28 0 -46
33 -93 81 -118 54 -27 145 -23 186 7 71 54 80 95 75 377 l-2 177 -25 0 -25 0
0 -221z"/>
<path d="M560 825 l0 -285 165 0 c158 0 165 1 165 20 0 19 -7 20 -140 20
l-140 0 0 265 0 265 -25 0 -25 0 0 -285z"/>
<path d="M945 828 c69 -272 72 -283 96 -286 23 -3 27 3 44 60 10 35 19 68 20
73 6 24 105 348 107 351 2 1 34 -108 72 -242 64 -226 71 -244 92 -244 27 0 20
-22 104 308 l67 263 -25 -3 c-29 -3 -25 9 -100 -300 l-48 -198 -21 83 c-12 45
-43 157 -70 249 -43 152 -50 168 -70 168 -25 0 -32 -19 -119 -322 -26 -92 -49
-166 -51 -164 -2 2 -5 14 -8 27 -2 13 -28 122 -57 241 -52 212 -54 218 -78
218 l-26 0 71 -282z"/>
</g>
</svg>
